<?xml version="1.0" encoding="UTF-8" standalone="no"?>
<!-- Created with Inkscape (http://www.inkscape.org/) -->

<svg
   xmlns:dc="http://purl.org/dc/elements/1.1/"
   xmlns:cc="http://creativecommons.org/ns#"
   xmlns:rdf="http://www.w3.org/1999/02/22-rdf-syntax-ns#"
   xmlns:svg="http://www.w3.org/2000/svg"
   xmlns="http://www.w3.org/2000/svg"
   xmlns:sodipodi="http://sodipodi.sourceforge.net/DTD/sodipodi-0.dtd"
   xmlns:inkscape="http://www.inkscape.org/namespaces/inkscape"
   width="744.09448819"
   height="1052.3622047"
   id="svg2"
   version="1.1"
   inkscape:version="0.48.5 r10040"
   sodipodi:docname="mj.svg">
  <defs
     id="defs4" />
  <sodipodi:namedview
     id="base"
     pagecolor="#ffffff"
     bordercolor="#666666"
     borderopacity="1.0"
     inkscape:pageopacity="0.0"
     inkscape:pageshadow="2"
     inkscape:zoom="1.0687332"
     inkscape:cx="421.9923"
     inkscape:cy="775.43762"
     inkscape:document-units="px"
     inkscape:current-layer="layer1"
     showgrid="false"
     inkscape:window-width="1458"
     inkscape:window-height="1002"
     inkscape:window-x="100"
     inkscape:window-y="0"
     inkscape:window-maximized="0" />
  <metadata
     id="metadata7">
    <rdf:RDF>
      <cc:Work
         rdf:about="">
        <dc:format>image/svg+xml</dc:format>
        <dc:type
           rdf:resource="http://purl.org/dc/dcmitype/StillImage" />
        <dc:title></dc:title>
      </cc:Work>
    </rdf:RDF>
  </metadata>
  <g
     inkscape:label="Layer 1"
     inkscape:groupmode="layer"
     id="layer1">
    <path
       style="fill:#000000"
       id="path3563"
       d="m 89.085491,325.51312 c 18.910099,-25.7943 30.530699,-44.1797 42.668399,-64.6452 11.3694,-18.35 27.2199,-47.19593 28.4068,-42.67326 1.7218,6.56043 2.8699,6.55777 3.567,9.46558 -2.7518,6.57294 -16.7139,29.57798 -21.7682,40.46438 -7.7641,16.7229 -18.5248,41.3527 -18.6896,58.323 44.4045,-61.4758 98.5738,-142.51405 133.1548,-200.72038 0.7126,-1.20916 1.4129,-2.4256 2.1013,-3.64865 0.4822,-0.85655 0.7519,-1.85981 1.4103,-2.58971 1.8196,-2.01741 3.9665,-3.71356 5.9498,-5.57033 1.5086,0.34973 3.3503,0.0411 4.5258,1.0492 3.8813,3.32839 1.3805,8.71979 0.041,12.3728 -25.6578,46.32301 -45.1751,86.76148 -68.3699,129.85417 -16.5537,24.1421 -27.2406,52.0093 -37.3272,79.4888 -4.4846,11.5923 -8.3164,23.4196 -11.7227,35.369 -2.3615,8.4333 -4.4161,16.9495 -6.1897,25.5249 l -9.0342,1.1393 0,0 c 35.0629,-133.9907 97.323,-186.10333 123.5914,-270.25432 0.1748,-1.08646 0.2955,-2.18183 0.3892,-3.27826 0.048,-0.56583 -0.5247,-1.61599 0.036,-1.70327 10.7613,0.53199 2.5591,1.78723 -6.4405,13.0381 -56.7473,84.07745 -91.6856,139.33835 -119.8482,174.82125 -2.0047,2.5259 -10.8524,15.0687 -12.2977,17.9515 -1.3802,2.7529 -2.1871,1.839 -3.653,2.2389 2.0528,-13.4731 4.6276,-23.319 10.396,-40.0657 5.7684,-16.7467 14.7303,-40.3942 23.4959,-52.60697 -20.0571,22.19457 -50.0113,75.09137 -62.988999,97.95857 -0.043,-5.7529 -3.9674,-8.0944 -1.4043,-11.3034 z"
       inkscape:connector-curvature="0"
       sodipodi:nodetypes="ccscsccsscsccccccccsccsscsccc" />
    <path
       style="fill:#000000"
       id="path3573"
       d="m 198.84319,220.22708 c 4.0685,-0.0265 8.0953,-0.93695 12.0609,-1.76967 8.0129,-1.87239 16.1592,-3.00515 24.3167,-4.01498 14.3517,-1.62316 28.6256,-3.81033 42.866,-6.20379 16.5041,-2.99658 33.2161,-4.49071 49.8916,-6.14642 17.7756,-1.77223 35.4457,-4.42899 53.1211,-6.98353 2.4334,-0.37208 4.8668,-0.74416 7.3002,-1.11624 0,0 -1.3,5.37503 -1.3,5.37503 l 0,0 c -2.3891,0.18665 -4.7782,0.3733 -7.1673,0.55995 -17.6041,1.50939 -35.2186,3.01165 -52.7285,5.41414 -16.749,2.39259 -33.4367,5.17334 -50.1473,7.81748 -14.5063,2.37534 -28.999,4.90678 -43.252,8.54707 -8.1704,2.06301 -16.3222,4.20625 -24.4165,6.55212 -4.0295,1.19405 -8.2918,2.24361 -11.8913,4.4728 0,0 1.3464,-12.50396 1.3464,-12.50396 z"
       inkscape:connector-curvature="0" />
    <path
       style="fill:#000000"
       id="path3577"
       d="m 280.27209,226.90643 c -25.4295,21.71729 -52.2619,76.50539 -62.5613,122.97229 -5.0729,3.134 -5.5575,-10.064 -4.7572,-12.2836 16.9247,-44.0541 -12.4916,-76.2411 -33.8418,-61.5412 15.6351,9.0018 37.3276,7.474 57.4746,5.6968 15.5037,-1.8873 30.8577,-4.7889 46.2545,-7.3733 5.962,-0.98 11.9174,-1.9995 17.8774,-2.9918 l -2.1929,8.9381 0,0 c -5.7808,0.3077 -11.5644,0.5488 -17.3482,0.7941 -35.0212,2.2945 -69.1613,8.3124 -90.3162,7.2685 -6.2446,-1.0624 -17.2813,-8.9942 -16.2854,-14.0755 39.0534,-21.1712 52.2084,33.401 44.5511,59.3846 27.5937,-83.1705 56.401,-108.67148 58.1696,-112.44673 0.7056,2.29564 1.7627,3.76306 2.9758,5.65774 z"
       inkscape:connector-curvature="0"
       sodipodi:nodetypes="ccccccccccccccc" />
    <path
       style="fill:#000000"
       id="path3649"
       d="m 300.62869,351.09112 c 0.481,-4.6238 3.8194,-8.4009 6.3647,-12.092 21.121,-26.5501 78.5631,-111.65818 67.3855,-81.8163 -32.4751,58.8367 -33.1215,78.811 -40.1593,88.3608 -0.3523,-0.035 -0.3591,2.3937 -0.5398,2.6424 -0.075,0.1036 0.034,-0.2677 -0.021,-0.3833 -0.4303,-0.9069 -0.6836,-1.974 -1.4208,-2.6552 19.1416,-21.3855 42.7255,-51.5259 62.2707,-75.0466 40.9391,-48.36431 60.8154,-59.79881 106.2708,-142.89334 9.868,-0.7761 -4.4111,20.06121 -6.4029,30.16375 -22.7877,27.21523 -51.5688,65.44073 -66.8853,94.63459 -15.4278,29.4059 -30.4871,53.7437 -43.1489,80.4514 4.5688,6.7637 58.6776,-49.9264 69.1514,-65.4546 14.4038,-6.4028 -0.8137,7.239 -8.0226,19.9392 -7.6814,13.0144 -20.3998,48.0424 -10.7113,48.3272 41.9012,1.232 120.3413,-132.75598 135.2084,-179.04591 2.7214,-3.63386 15.6665,-13.19435 9.935,-1.7196 -43.0606,118.72961 -51.7875,121.58801 -53.1287,255.78351 -5.9047,53.6174 -36.7854,72.0699 -64.8695,56.5181 -18.1401,-11.1998 -20.531,-39.3359 7.4477,-65.8078 21.2424,-20.0984 53.378,-42.371 75.6469,-57.3729 54.802,-33.7715 78.9196,-43.1269 122.4217,-59.1043 1.6015,3.7425 1.2677,3.3785 -0.2662,7.6887 -92.8786,26.0569 -158.0448,75.6592 -199.1264,116.5829 -20.625,20.5822 -19.8398,46.974 4.5672,57.1723 42.7379,1.9361 48.5016,-62.1264 50.2276,-103.4865 1.2289,-31.6871 7.3326,-107.3005 28.0987,-146.55569 -42.1751,71.81969 -103.7032,134.95449 -121.5599,120.80819 -5.5353,-4.3851 9.4338,-45.816 14.6138,-55.7026 28.2715,-31.078 10.5639,-6.9665 0.6613,6.2829 -6.0087,6.0429 -10.4459,10.157 -16.341,16.3108 -12.7659,13.5608 -24.5314,25.1175 -39.4814,35.2274 -3.2913,1.7762 -5.1204,1.2925 -8.5307,-1.5917 -1.1531,-2.1612 3.6001,-10.2149 4.9207,-13.0332 3.2129,-6.3774 6.617,-12.652 9.9925,-18.9442 10.9442,-20.3779 22.0366,-41.1734 33.1572,-59.4999 7.4724,-12.29518 14.2996,-24.61915 21.8615,-36.85931 16.4117,-19.13769 -23.5041,30.10223 -38.4451,47.43621 -39.929,46.9219 -52.2176,67.7628 -80.6306,97.7569 -0.5756,0.5105 -2.4509,1.3663 -3.146,1.6959 -1.4522,-0.4482 -3.1131,-0.4708 -4.3566,-1.3446 33.9137,-74.1637 30.704,-59.9364 49.4921,-99.5856 -25.0812,29.4002 -48.1196,58.7167 -60.2026,92.792 l -12.2989,3.42 z"
       inkscape:connector-curvature="0"
       sodipodi:nodetypes="ccccccccccscccsccccscccccccsccccccccccccccccc" />
  </g>
</svg>
